# Blender v2.80 (sub 75) OBJ File: ''
# www.blender.org
mtllib coffee_table.mtl
o Coffee_Table_Legs.001_Cube.014
v -0.450123 -0.030151 -0.388986
v -0.451103 -0.030151 -0.389966
v -0.450816 -0.030151 -0.389273
v -0.451103 -0.030151 -0.427184
v -0.450123 -0.030151 -0.428164
v -0.450816 -0.030151 -0.427877
v -0.412905 -0.030151 -0.428164
v -0.411926 -0.030151 -0.427184
v -0.412212 -0.030151 -0.427877
v -0.411926 -0.030151 -0.389966
v -0.412905 -0.030151 -0.388986
v -0.412212 -0.030151 -0.389273
v -0.451103 0.156491 -0.389966
v -0.450123 0.156491 -0.388986
v -0.450816 0.156491 -0.389273
v -0.450123 0.156491 -0.428164
v -0.451103 0.156491 -0.427184
v -0.450816 0.156491 -0.427877
v -0.411926 0.156491 -0.427184
v -0.412905 0.156491 -0.428164
v -0.412212 0.156491 -0.427877
v -0.412905 0.156491 -0.388986
v -0.411926 0.156491 -0.389966
v -0.412212 0.156491 -0.389273
v 0.420105 -0.030151 -0.388986
v 0.419126 -0.030151 -0.389966
v 0.419413 -0.030151 -0.389273
v 0.419126 -0.030151 -0.427184
v 0.420105 -0.030151 -0.428164
v 0.419413 -0.030151 -0.427877
v 0.457324 -0.030151 -0.428164
v 0.458303 -0.030151 -0.427184
v 0.458016 -0.030151 -0.427877
v 0.458303 -0.030151 -0.389966
v 0.457324 -0.030151 -0.388986
v 0.458016 -0.030151 -0.389273
v 0.419126 0.156491 -0.389966
v 0.420105 0.156491 -0.388986
v 0.419413 0.156491 -0.389273
v 0.420105 0.156491 -0.428164
v 0.419126 0.156491 -0.427184
v 0.419413 0.156491 -0.427877
v 0.458303 0.156491 -0.427184
v 0.457324 0.156491 -0.428164
v 0.458016 0.156491 -0.427877
v 0.457324 0.156491 -0.388986
v 0.458303 0.156491 -0.389966
v 0.458016 0.156491 -0.389273
v 0.420105 -0.030151 0.431277
v 0.419126 -0.030151 0.430298
v 0.419413 -0.030151 0.430990
v 0.419126 -0.030151 0.393079
v 0.420105 -0.030151 0.392100
v 0.419413 -0.030151 0.392387
v 0.457324 -0.030151 0.392100
v 0.458303 -0.030151 0.393079
v 0.458016 -0.030151 0.392387
v 0.458303 -0.030151 0.430298
v 0.457324 -0.030151 0.431277
v 0.458016 -0.030151 0.430990
v 0.419126 0.156491 0.430298
v 0.420105 0.156491 0.431277
v 0.419413 0.156491 0.430990
v 0.420105 0.156491 0.392100
v 0.419126 0.156491 0.393079
v 0.419413 0.156491 0.392387
v 0.458303 0.156491 0.393079
v 0.457324 0.156491 0.392100
v 0.458016 0.156491 0.392387
v 0.457324 0.156491 0.431277
v 0.458303 0.156491 0.430298
v 0.458016 0.156491 0.430990
v -0.450123 -0.030151 0.431277
v -0.451103 -0.030151 0.430298
v -0.450816 -0.030151 0.430990
v -0.451103 -0.030151 0.393079
v -0.450123 -0.030151 0.392100
v -0.450816 -0.030151 0.392387
v -0.412905 -0.030151 0.392100
v -0.411926 -0.030151 0.393079
v -0.412212 -0.030151 0.392387
v -0.411926 -0.030151 0.430298
v -0.412905 -0.030151 0.431277
v -0.412212 -0.030151 0.430990
v -0.451103 0.156491 0.430298
v -0.450123 0.156491 0.431277
v -0.450816 0.156491 0.430990
v -0.450123 0.156491 0.392100
v -0.451103 0.156491 0.393079
v -0.450816 0.156491 0.392387
v -0.411926 0.156491 0.393079
v -0.412905 0.156491 0.392100
v -0.412212 0.156491 0.392387
v -0.412905 0.156491 0.431277
v -0.411926 0.156491 0.430298
v -0.412212 0.156491 0.430990
v -0.468565 0.146471 0.450476
v -0.468565 0.160479 0.464484
v -0.482573 0.160479 0.450476
v -0.468565 0.147537 0.455837
v -0.468565 0.150574 0.460381
v -0.473926 0.147537 0.450476
v -0.474060 0.148824 0.455971
v -0.473781 0.151286 0.459669
v -0.476653 0.152392 0.458564
v -0.473926 0.160479 0.463418
v -0.478470 0.160479 0.460381
v -0.468565 0.155119 0.463418
v -0.474060 0.154984 0.462131
v -0.477758 0.155263 0.459669
v -0.481507 0.155119 0.450476
v -0.478470 0.150574 0.450476
v -0.481507 0.160479 0.455837
v -0.480220 0.154984 0.455971
v -0.477758 0.151286 0.455692
v -0.482573 0.160479 -0.455326
v -0.468565 0.160479 -0.469334
v -0.468565 0.146471 -0.455326
v -0.481507 0.160479 -0.460687
v -0.478470 0.160479 -0.465231
v -0.481507 0.155119 -0.455326
v -0.480220 0.154984 -0.460821
v -0.477758 0.155263 -0.464519
v -0.476653 0.152392 -0.463414
v -0.468565 0.155119 -0.468268
v -0.468565 0.150574 -0.465231
v -0.473926 0.160479 -0.468268
v -0.474060 0.154984 -0.466981
v -0.473781 0.151286 -0.464519
v -0.473926 0.147537 -0.455326
v -0.478470 0.150574 -0.455326
v -0.468565 0.147537 -0.460687
v -0.474060 0.148824 -0.460821
v -0.477758 0.151286 -0.460542
v 0.486473 0.160480 -0.469334
v 0.500481 0.160480 -0.455326
v 0.486473 0.146471 -0.455326
v 0.491833 0.160480 -0.468268
v 0.496378 0.160480 -0.465231
v 0.486473 0.155119 -0.468268
v 0.491968 0.154984 -0.466981
v 0.495666 0.155263 -0.464519
v 0.494560 0.152392 -0.463414
v 0.499415 0.155119 -0.455326
v 0.496378 0.150574 -0.455326
v 0.499415 0.160480 -0.460687
v 0.498128 0.154984 -0.460821
v 0.495666 0.151286 -0.460542
v 0.486473 0.147537 -0.460687
v 0.486473 0.150574 -0.465231
v 0.491833 0.147537 -0.455326
v 0.491968 0.148824 -0.460821
v 0.491689 0.151286 -0.464519
v 0.500481 0.160480 0.450476
v 0.486473 0.160480 0.464484
v 0.486473 0.146471 0.450476
v 0.499415 0.160480 0.455837
v 0.496378 0.160480 0.460381
v 0.499415 0.155119 0.450476
v 0.498128 0.154984 0.455971
v 0.495666 0.155263 0.459669
v 0.494560 0.152392 0.458564
v 0.486473 0.155119 0.463418
v 0.486473 0.150574 0.460381
v 0.491833 0.160480 0.463418
v 0.491968 0.154984 0.462131
v 0.491689 0.151286 0.459669
v 0.491833 0.147537 0.450476
v 0.496378 0.150574 0.450476
v 0.486473 0.147537 0.455837
v 0.491968 0.148824 0.455971
v 0.495666 0.151286 0.455692
v -0.482573 0.419726 0.450476
v -0.468565 0.419726 0.464484
v -0.468565 0.433734 0.450476
v -0.481507 0.419726 0.455837
v -0.478470 0.419726 0.460381
v -0.481507 0.425086 0.450476
v -0.480220 0.425221 0.455971
v -0.477758 0.424942 0.459669
v -0.476653 0.427813 0.458564
v -0.468565 0.425086 0.463418
v -0.468565 0.429631 0.460381
v -0.473926 0.419726 0.463418
v -0.474060 0.425221 0.462131
v -0.473781 0.428919 0.459669
v -0.473926 0.432668 0.450476
v -0.478470 0.429631 0.450476
v -0.468565 0.432668 0.455837
v -0.474060 0.431381 0.455971
v -0.477758 0.428919 0.455692
v -0.482573 0.419726 -0.455326
v -0.468565 0.433734 -0.455326
v -0.468565 0.419726 -0.469334
v -0.481507 0.425086 -0.455326
v -0.478470 0.429631 -0.455326
v -0.481507 0.419726 -0.460687
v -0.480220 0.425221 -0.460821
v -0.477758 0.428919 -0.460542
v -0.476653 0.427813 -0.463414
v -0.468565 0.432668 -0.460687
v -0.468565 0.429631 -0.465231
v -0.473926 0.432668 -0.455326
v -0.474060 0.431381 -0.460821
v -0.473781 0.428919 -0.464519
v -0.473926 0.419726 -0.468268
v -0.478470 0.419726 -0.465231
v -0.468565 0.425086 -0.468268
v -0.474060 0.425221 -0.466981
v -0.477758 0.424942 -0.464519
v 0.486473 0.419726 -0.469334
v 0.486473 0.433734 -0.455326
v 0.500481 0.419726 -0.455326
v 0.486473 0.425086 -0.468268
v 0.486473 0.429631 -0.465231
v 0.491833 0.419726 -0.468268
v 0.491968 0.425221 -0.466981
v 0.491689 0.428919 -0.464519
v 0.494560 0.427813 -0.463414
v 0.491833 0.432668 -0.455326
v 0.496378 0.429631 -0.455326
v 0.486473 0.432668 -0.460687
v 0.491968 0.431381 -0.460821
v 0.495666 0.428919 -0.460542
v 0.499415 0.419726 -0.460687
v 0.496378 0.419726 -0.465231
v 0.499415 0.425086 -0.455326
v 0.498128 0.425221 -0.460821
v 0.495666 0.424942 -0.464519
v 0.500481 0.419725 0.450476
v 0.486473 0.433734 0.450476
v 0.486473 0.419725 0.464484
v 0.499415 0.425086 0.450476
v 0.496378 0.429631 0.450476
v 0.499415 0.419725 0.455837
v 0.498128 0.425221 0.455971
v 0.495666 0.428919 0.455692
v 0.494560 0.427813 0.458564
v 0.486473 0.432668 0.455837
v 0.486473 0.429631 0.460381
v 0.491833 0.432668 0.450476
v 0.491968 0.431381 0.455971
v 0.491689 0.428919 0.459669
v 0.491833 0.419725 0.463418
v 0.496378 0.419725 0.460381
v 0.486473 0.425086 0.463418
v 0.491968 0.425221 0.462131
v 0.495666 0.424942 0.459669
vn 0.1951 0.0000 0.9808
vn -0.1951 0.0000 0.9808
vn 0.9808 0.0000 -0.1951
vn 0.9808 0.0000 0.1951
vn -0.1951 0.0000 -0.9808
vn 0.1951 0.0000 -0.9808
vn -0.7071 0.0000 0.7071
vn -0.9808 0.0000 0.1951
vn -0.7071 0.0000 -0.7071
vn -0.9808 0.0000 -0.1951
vn 0.7071 0.0000 -0.7071
vn 0.7071 0.0000 0.7071
vn -0.1004 -0.9899 0.1004
vn -0.1004 -0.9899 -0.1004
vn 0.1004 -0.9899 -0.1004
vn 0.1004 -0.9899 0.1004
vn 0.9899 0.1004 -0.1004
vn 0.9899 0.1004 0.1004
vn 0.9899 -0.1004 0.1004
vn 0.9899 -0.1004 -0.1004
vn 0.1004 0.9899 0.1004
vn 0.1004 0.9899 -0.1004
vn -0.1004 0.9899 -0.1004
vn -0.1004 0.9899 0.1004
vn -0.1004 0.1004 -0.9899
vn 0.1004 0.1004 -0.9899
vn 0.1004 -0.1004 -0.9899
vn -0.1004 -0.1004 -0.9899
vn 0.1004 0.1004 0.9899
vn -0.1004 0.1004 0.9899
vn -0.1004 -0.1004 0.9899
vn 0.1004 -0.1004 0.9899
vn -0.0981 -0.9201 0.3792
vn -0.3673 -0.8545 0.3673
vn -0.3792 -0.9201 0.0981
vn -0.0919 -0.7041 0.7041
vn -0.3347 -0.6663 0.6663
vn -0.6663 -0.6663 0.3347
vn -0.7041 -0.7041 0.0919
vn -0.5773 -0.5773 0.5773
vn -0.3792 -0.0981 0.9201
vn -0.3673 -0.3673 0.8545
vn -0.0981 -0.3792 0.9201
vn -0.7041 -0.0919 0.7041
vn -0.6663 -0.3347 0.6663
vn -0.9899 -0.1004 0.1004
vn -0.9201 -0.3792 0.0981
vn -0.8545 -0.3673 0.3673
vn -0.9201 -0.0981 0.3792
vn -0.9899 -0.1004 -0.1004
vn -0.9201 -0.0981 -0.3792
vn -0.8545 -0.3673 -0.3674
vn -0.9201 -0.3792 -0.0981
vn -0.7041 -0.0919 -0.7041
vn -0.6663 -0.3347 -0.6663
vn -0.6663 -0.6663 -0.3347
vn -0.7041 -0.7041 -0.0919
vn -0.5773 -0.5773 -0.5773
vn -0.0981 -0.3792 -0.9201
vn -0.3673 -0.3673 -0.8545
vn -0.3792 -0.0981 -0.9201
vn -0.0919 -0.7041 -0.7041
vn -0.3347 -0.6663 -0.6663
vn -0.3792 -0.9201 -0.0981
vn -0.3673 -0.8545 -0.3673
vn -0.0981 -0.9201 -0.3792
vn 0.3792 -0.0981 -0.9201
vn 0.3673 -0.3673 -0.8545
vn 0.0981 -0.3792 -0.9201
vn 0.7041 -0.0919 -0.7041
vn 0.6663 -0.3347 -0.6663
vn 0.3347 -0.6663 -0.6663
vn 0.0919 -0.7041 -0.7041
vn 0.5773 -0.5773 -0.5773
vn 0.9201 -0.3792 -0.0981
vn 0.8545 -0.3673 -0.3673
vn 0.9201 -0.0981 -0.3792
vn 0.7041 -0.7041 -0.0919
vn 0.6663 -0.6663 -0.3347
vn 0.0981 -0.9201 -0.3792
vn 0.3673 -0.8545 -0.3673
vn 0.3792 -0.9201 -0.0981
vn 0.9201 -0.0981 0.3792
vn 0.8545 -0.3673 0.3673
vn 0.9201 -0.3792 0.0981
vn 0.7041 -0.0919 0.7041
vn 0.6663 -0.3347 0.6663
vn 0.6663 -0.6663 0.3347
vn 0.7041 -0.7041 0.0919
vn 0.5773 -0.5773 0.5773
vn 0.0981 -0.3792 0.9201
vn 0.3673 -0.3673 0.8545
vn 0.3792 -0.0981 0.9201
vn 0.0919 -0.7041 0.7041
vn 0.3347 -0.6663 0.6663
vn 0.3792 -0.9201 0.0981
vn 0.3673 -0.8545 0.3673
vn 0.0981 -0.9201 0.3792
vn -0.9899 0.1004 0.1004
vn -0.9201 0.0981 0.3792
vn -0.8545 0.3673 0.3673
vn -0.9201 0.3792 0.0981
vn -0.7041 0.0919 0.7041
vn -0.6663 0.3347 0.6663
vn -0.6663 0.6663 0.3347
vn -0.7041 0.7041 0.0919
vn -0.5773 0.5773 0.5773
vn -0.0981 0.3792 0.9201
vn -0.3673 0.3673 0.8545
vn -0.3792 0.0981 0.9201
vn -0.0919 0.7041 0.7041
vn -0.3347 0.6663 0.6663
vn -0.3792 0.9201 0.0981
vn -0.3673 0.8545 0.3673
vn -0.0981 0.9201 0.3792
vn -0.9899 0.1004 -0.1004
vn -0.9201 0.3792 -0.0981
vn -0.8545 0.3673 -0.3673
vn -0.9201 0.0981 -0.3792
vn -0.7041 0.7041 -0.0919
vn -0.6663 0.6663 -0.3347
vn -0.6663 0.3347 -0.6663
vn -0.7041 0.0919 -0.7041
vn -0.5773 0.5773 -0.5773
vn -0.0981 0.9201 -0.3792
vn -0.3673 0.8545 -0.3673
vn -0.3792 0.9201 -0.0981
vn -0.0919 0.7041 -0.7041
vn -0.3347 0.6663 -0.6663
vn -0.3792 0.0981 -0.9201
vn -0.3673 0.3673 -0.8545
vn -0.0981 0.3792 -0.9201
vn 0.0981 0.3792 -0.9201
vn 0.3673 0.3673 -0.8545
vn 0.3792 0.0981 -0.9201
vn 0.0919 0.7041 -0.7041
vn 0.3347 0.6663 -0.6663
vn 0.6663 0.3347 -0.6663
vn 0.7041 0.0919 -0.7041
vn 0.5773 0.5773 -0.5773
vn 0.3792 0.9201 -0.0981
vn 0.3673 0.8545 -0.3673
vn 0.0981 0.9201 -0.3792
vn 0.7041 0.7041 -0.0919
vn 0.6663 0.6663 -0.3347
vn 0.9201 0.0981 -0.3792
vn 0.8545 0.3673 -0.3673
vn 0.9201 0.3792 -0.0981
vn 0.9201 0.3792 0.0981
vn 0.8545 0.3673 0.3673
vn 0.9201 0.0981 0.3792
vn 0.7041 0.7041 0.0919
vn 0.6663 0.6663 0.3347
vn 0.6663 0.3347 0.6663
vn 0.7041 0.0919 0.7041
vn 0.5773 0.5773 0.5773
vn 0.0981 0.9201 0.3792
vn 0.3673 0.8545 0.3673
vn 0.3792 0.9201 0.0981
vn 0.0919 0.7041 0.7041
vn 0.3347 0.6663 0.6663
vn 0.3792 0.0981 0.9201
vn 0.3673 0.3673 0.8545
vn 0.0981 0.3792 0.9201
usemtl Material.003
s 1
f 22//1 14//2 1//2 11//1
f 19//3 23//4 10//4 8//3
f 16//5 20//6 7//6 5//5
f 1//2 14//2 15//7 3//7
f 3//7 15//7 13//8 2//8
f 16//5 5//5 6//9 18//9
f 18//9 6//9 4//10 17//10
f 19//3 8//3 9//11 21//11
f 21//11 9//11 7//6 20//6
f 22//1 11//1 12//12 24//12
f 24//12 12//12 10//4 23//4
f 13//8 17//10 4//10 2//8
f 46//1 38//2 25//2 35//1
f 43//3 47//4 34//4 32//3
f 40//5 44//6 31//6 29//5
f 25//2 38//2 39//7 27//7
f 27//7 39//7 37//8 26//8
f 40//5 29//5 30//9 42//9
f 42//9 30//9 28//10 41//10
f 43//3 32//3 33//11 45//11
f 45//11 33//11 31//6 44//6
f 46//1 35//1 36//12 48//12
f 48//12 36//12 34//4 47//4
f 37//8 41//10 28//10 26//8
f 70//1 62//2 49//2 59//1
f 67//3 71//4 58//4 56//3
f 64//5 68//6 55//6 53//5
f 49//2 62//2 63//7 51//7
f 51//7 63//7 61//8 50//8
f 64//5 53//5 54//9 66//9
f 66//9 54//9 52//10 65//10
f 67//3 56//3 57//11 69//11
f 69//11 57//11 55//6 68//6
f 70//1 59//1 60//12 72//12
f 72//12 60//12 58//4 71//4
f 61//8 65//10 52//10 50//8
f 94//1 86//2 73//2 83//1
f 91//3 95//4 82//4 80//3
f 88//5 92//6 79//6 77//5
f 73//2 86//2 87//7 75//7
f 75//7 87//7 85//8 74//8
f 88//5 77//5 78//9 90//9
f 90//9 78//9 76//10 89//10
f 91//3 80//3 81//11 93//11
f 93//11 81//11 79//6 92//6
f 94//1 83//1 84//12 96//12
f 96//12 84//12 82//4 95//4
f 85//8 89//10 76//10 74//8
usemtl Paint_-_White_Gloss
f 97//13 118//14 137//15 156//16
f 213//17 230//18 154//19 136//20
f 231//21 212//22 193//23 175//24
f 194//25 211//26 135//27 117//28
f 232//29 174//30 98//31 155//32
f 97//13 100//33 103//34 102//35
f 100//33 101//36 104//37 103//34
f 102//35 103//34 115//38 112//39
f 103//34 104//37 105//40 115//38
f 98//31 106//41 109//42 108//43
f 106//41 107//44 110//45 109//42
f 108//43 109//42 104//37 101//36
f 109//42 110//45 105//40 104//37
f 99//46 111//47 114//48 113//49
f 111//47 112//39 115//38 114//48
f 113//49 114//48 110//45 107//44
f 114//48 115//38 105//40 110//45
f 116//50 119//51 122//52 121//53
f 119//51 120//54 123//55 122//52
f 121//53 122//52 134//56 131//57
f 122//52 123//55 124//58 134//56
f 117//28 125//59 128//60 127//61
f 125//59 126//62 129//63 128//60
f 127//61 128//60 123//55 120//54
f 128//60 129//63 124//58 123//55
f 118//14 130//64 133//65 132//66
f 130//64 131//57 134//56 133//65
f 132//66 133//65 129//63 126//62
f 133//65 134//56 124//58 129//63
f 135//27 138//67 141//68 140//69
f 138//67 139//70 142//71 141//68
f 140//69 141//68 153//72 150//73
f 141//68 142//71 143//74 153//72
f 136//20 144//75 147//76 146//77
f 144//75 145//78 148//79 147//76
f 146//77 147//76 142//71 139//70
f 147//76 148//79 143//74 142//71
f 137//15 149//80 152//81 151//82
f 149//80 150//73 153//72 152//81
f 151//82 152//81 148//79 145//78
f 152//81 153//72 143//74 148//79
f 154//19 157//83 160//84 159//85
f 157//83 158//86 161//87 160//84
f 159//85 160//84 172//88 169//89
f 160//84 161//87 162//90 172//88
f 155//32 163//91 166//92 165//93
f 163//91 164//94 167//95 166//92
f 165//93 166//92 161//87 158//86
f 166//92 167//95 162//90 161//87
f 156//16 168//96 171//97 170//98
f 168//96 169//89 172//88 171//97
f 170//98 171//97 167//95 164//94
f 171//97 172//88 162//90 167//95
f 173//99 176//100 179//101 178//102
f 176//100 177//103 180//104 179//101
f 178//102 179//101 191//105 188//106
f 179//101 180//104 181//107 191//105
f 174//30 182//108 185//109 184//110
f 182//108 183//111 186//112 185//109
f 184//110 185//109 180//104 177//103
f 185//109 186//112 181//107 180//104
f 175//24 187//113 190//114 189//115
f 187//113 188//106 191//105 190//114
f 189//115 190//114 186//112 183//111
f 190//114 191//105 181//107 186//112
f 192//116 195//117 198//118 197//119
f 195//117 196//120 199//121 198//118
f 197//119 198//118 210//122 207//123
f 198//118 199//121 200//124 210//122
f 193//23 201//125 204//126 203//127
f 201//125 202//128 205//129 204//126
f 203//127 204//126 199//121 196//120
f 204//126 205//129 200//124 199//121
f 194//25 206//130 209//131 208//132
f 206//130 207//123 210//122 209//131
f 208//132 209//131 205//129 202//128
f 209//131 210//122 200//124 205//129
f 211//26 214//133 217//134 216//135
f 214//133 215//136 218//137 217//134
f 216//135 217//134 229//138 226//139
f 217//134 218//137 219//140 229//138
f 212//22 220//141 223//142 222//143
f 220//141 221//144 224//145 223//142
f 222//143 223//142 218//137 215//136
f 223//142 224//145 219//140 218//137
f 213//17 225//146 228//147 227//148
f 225//146 226//139 229//138 228//147
f 227//148 228//147 224//145 221//144
f 228//147 229//138 219//140 224//145
f 230//18 233//149 236//150 235//151
f 233//149 234//152 237//153 236//150
f 235//151 236//150 248//154 245//155
f 236//150 237//153 238//156 248//154
f 231//21 239//157 242//158 241//159
f 239//157 240//160 243//161 242//158
f 241//159 242//158 237//153 234//152
f 242//158 243//161 238//156 237//153
f 232//29 244//162 247//163 246//164
f 244//162 245//155 248//154 247//163
f 246//164 247//163 243//161 240//160
f 247//163 248//154 238//156 243//161
f 98//31 174//30 184//110 106//41
f 106//41 184//110 177//103 107//44
f 107//44 177//103 176//100 113//49
f 113//49 176//100 173//99 99//46
f 175//24 193//23 203//127 187//113
f 187//113 203//127 196//120 188//106
f 188//106 196//120 195//117 178//102
f 178//102 195//117 192//116 173//99
f 194//25 117//28 127//61 206//130
f 206//130 127//61 120//54 207//123
f 207//123 120//54 119//51 197//119
f 197//119 119//51 116//50 192//116
f 118//14 97//13 102//35 130//64
f 130//64 102//35 112//39 131//57
f 131//57 112//39 111//47 121//53
f 121//53 111//47 99//46 116//50
f 193//23 212//22 222//143 201//125
f 201//125 222//143 215//136 202//128
f 202//128 215//136 214//133 208//132
f 208//132 214//133 211//26 194//25
f 213//17 136//20 146//77 225//146
f 225//146 146//77 139//70 226//139
f 226//139 139//70 138//67 216//135
f 216//135 138//67 135//27 211//26
f 137//15 118//14 132//66 149//80
f 149//80 132//66 126//62 150//73
f 150//73 126//62 125//59 140//69
f 140//69 125//59 117//28 135//27
f 212//22 231//21 241//159 220//141
f 220//141 241//159 234//152 221//144
f 221//144 234//152 233//149 227//148
f 227//148 233//149 230//18 213//17
f 232//29 155//32 165//93 244//162
f 244//162 165//93 158//86 245//155
f 245//155 158//86 157//83 235//151
f 235//151 157//83 154//19 230//18
f 156//16 137//15 151//82 168//96
f 168//96 151//82 145//78 169//89
f 169//89 145//78 144//75 159//85
f 159//85 144//75 136//20 154//19
f 231//21 175//24 189//115 239//157
f 239//157 189//115 183//111 240//160
f 240//160 183//111 182//108 246//164
f 246//164 182//108 174//30 232//29
f 97//13 156//16 170//98 100//33
f 100//33 170//98 164//94 101//36
f 101//36 164//94 163//91 108//43
f 108//43 163//91 155//32 98//31
f 173//99 192//116 116//50 99//46
