# File exported by Houdini 17.0.459 (www.sidefx.com)
# 24 points
# 96 vertices
# 26 primitives
# Bounds: [-0.360000014, 0, -0.360000014] to [0.360000014, 1, 0.360000014]
g 
v 0.360000014 1 0
v 0.311769158 1 -0.180000007
v 0.179999992 1 -0.311769187
v -1.57361004e-08 1 -0.360000014
v -0.180000037 1 -0.311769158
v -0.311769158 1 -0.180000037
v -0.360000014 1 3.14722008e-08
v -0.311769098 1 0.180000067
v -0.179999977 1 0.311769187
v 4.2929571e-09 1 0.360000014
v 0.179999977 1 0.311769187
v 0.311769217 1 0.179999918
v 0.360000014 0 0
v 0.311769158 0 -0.180000007
v 0.179999992 0 -0.311769187
v -1.57361004e-08 0 -0.360000014
v -0.180000037 0 -0.311769158
v -0.311769158 0 -0.180000037
v -0.360000014 0 3.14722008e-08
v -0.311769098 0 0.180000067
v -0.179999977 0 0.311769187
v 4.2929571e-09 0 0.360000014
v 0.179999977 0 0.311769187
v 0.311769217 0 0.179999918
vn 0 1 -0
vn 0 1 -0
vn 0 1 -0
vn 0 1 -0
vn 0 1 -0
vn 0 1 -0
vn 0 1 -0
vn 0 1 0
vn 0 1 -0
vn 0 1 -0
vn 0 1 0
vn 0 1 -0
vn -0 -1 0
vn -0 -1 0
vn -0 -1 0
vn 0 -1 0
vn -0 -1 0
vn -0 -1 0
vn 0 -1 0
vn -0 -1 0
vn -0 -1 0
vn -0 -1 0
vn -0 -1 0
vn -0 -1 0
vn 1 0 -9.82101653e-08
vn 0.866025448 -0 -0.49999994
vn 0.866025448 -0 -0.49999997
vn 1 0 -9.82101653e-08
vn 1 0 -8.83891573e-08
vn 0.866025448 -0 -0.49999994
vn 0.866025448 -0 -0.49999997
vn 0.50000006 -0 -0.866025388
vn 0.49999994 -0 -0.866025388
vn 0.866025448 -0 -0.49999997
vn 0.866025448 -0 -0.49999994
vn 0.50000006 -0 -0.866025388
vn 0.49999994 -0 -0.866025388
vn -8.83891573e-08 0 -1
vn -8.96167762e-08 0 -1
vn 0.49999994 -0 -0.866025388
vn 0.50000006 -0 -0.866025388
vn -8.83891573e-08 0 -1
vn -8.96167762e-08 0 -1
vn -0.5 0 -0.866025388
vn -0.50000006 0 -0.866025388
vn -8.96167762e-08 0 -1
vn -8.83891573e-08 0 -1
vn -0.5 0 -0.866025388
vn -0.50000006 0 -0.866025388
vn -0.866025388 0 -0.49999994
vn -0.866025388 0 -0.5
vn -0.50000006 0 -0.866025388
vn -0.5 0 -0.866025388
vn -0.866025388 0 -0.49999994
vn -0.866025388 0 -0.5
vn -1 0 1.76778329e-07
vn -1 0 1.68184911e-07
vn -0.866025388 0 -0.5
vn -0.866025388 0 -0.49999994
vn -1 0 1.76778329e-07
vn -1 0 1.68184911e-07
vn -0.866025209 0 0.50000006
vn -0.866025209 0 0.50000006
vn -1 0 1.68184911e-07
vn -1 0 1.76778329e-07
vn -0.866025209 0 0.50000006
vn -0.866025209 0 0.50000006
vn -0.49999997 0 0.866025448
vn -0.49999997 0 0.866025448
vn -0.866025209 0 0.50000006
vn -0.866025209 0 0.50000006
vn -0.49999997 0 0.866025448
vn -0.49999997 0 0.866025448
vn 0 0 1
vn 4.91050844e-09 0 1
vn -0.49999997 0 0.866025448
vn -0.49999997 0 0.866025448
vn 0 0 1
vn 4.91050844e-09 0 1
vn 0.49999994 0 0.866025388
vn 0.5 0 0.866025388
vn 4.91050844e-09 0 1
vn 0 0 1
vn 0.49999994 0 0.866025388
vn 0.5 0 0.866025388
vn 0.866025448 0 0.49999994
vn 0.866025388 0 0.499999851
vn 0.5 0 0.866025388
vn 0.49999994 0 0.866025388
vn 0.866025448 0 0.49999994
vn 0.866025388 0 0.499999851
vn 1 0 -8.83891573e-08
vn 1 0 -9.82101653e-08
vn 0.866025388 0 0.499999851
vn 0.866025448 0 0.49999994
vn 1 0 -8.83891573e-08
g 
f 12//1 1//2 2//3 3//4 4//5 5//6 6//7 7//8 8//9 9//10 10//11 11//12
f 13//13 24//14 23//15 22//16 21//17 20//18 19//19 18//20 17//21 16//22 15//23 14//24
f 1//25 14//26 2//27
f 1//28 13//29 14//30
f 2//31 15//32 3//33
f 2//34 14//35 15//36
f 3//37 16//38 4//39
f 3//40 15//41 16//42
f 4//43 17//44 5//45
f 4//46 16//47 17//48
f 5//49 18//50 6//51
f 5//52 17//53 18//54
f 6//55 19//56 7//57
f 6//58 18//59 19//60
f 7//61 20//62 8//63
f 7//64 19//65 20//66
f 8//67 21//68 9//69
f 8//70 20//71 21//72
f 9//73 22//74 10//75
f 9//76 21//77 22//78
f 10//79 23//80 11//81
f 10//82 22//83 23//84
f 11//85 24//86 12//87
f 11//88 23//89 24//90
f 12//91 13//92 1//93
f 12//94 24//95 13//96
