# File exported by Houdini 17.0.459 (www.sidefx.com)
# 20 points
# 60 vertices
# 12 primitives
# Bounds: [-0.47552821, 0, -0.404508293] to [0.47552821, 1, 0.404508293]
g 
v 0.181635603 0.750000119 -0.404508233
v 0.293892622 0.404508591 -0.404508263
v 0 0.190982997 -0.404508293
v -0.293892622 0.404508591 -0.404508263
v -0.181635603 0.750000119 -0.404508233
v -0.293892622 0.904508591 -0.0954913795
v -0.47552821 0.345491499 -0.0954914168
v 0 0 -0.0954914317
v 0.47552821 0.345491499 -0.0954914168
v 0.293892622 0.904508591 -0.0954913795
v 0 1 0.0954914317
v -0.47552821 0.654508471 0.0954914168
v -0.293892622 0.0954914093 0.0954913795
v 0.293892622 0.0954914093 0.0954913795
v 0.47552821 0.654508471 0.0954914168
v 0 0.809017003 0.404508293
v 0.293892622 0.595491409 0.404508263
v 0.181635603 0.249999911 0.404508233
v -0.181635603 0.249999911 0.404508233
v -0.293892622 0.595491409 0.404508263
vn -0 8.62606413e-08 -1
vn 3.13359898e-08 9.64423208e-08 -1
vn -0 1.39572606e-07 -1
vn -3.13359898e-08 9.64423208e-08 -1
vn -0 8.62606413e-08 -1
vn -0 0.89442718 -0.447213769
vn -0 0.89442718 -0.447213769
vn 7.42047916e-08 0.89442718 -0.447213709
vn -0 0.89442718 -0.44721359
vn -7.42047916e-08 0.89442718 -0.447213709
vn 0.850650609 0.276393235 -0.447213799
vn 0.850650728 0.276393145 -0.447213799
vn 0.850650668 0.276393116 -0.447213769
vn 0.850650907 0.276392996 -0.44721365
vn 0.850650847 0.276393265 -0.44721359
vn 0.525731206 -0.723606467 -0.447214007
vn 0.525731266 -0.723606408 -0.447213978
vn 0.525730968 -0.723606467 -0.447214305
vn 0.525730789 -0.723606884 -0.447213858
vn 0.525731325 -0.723606646 -0.44721368
vn -0.525731325 -0.723606646 -0.44721368
vn -0.525730789 -0.723606884 -0.447213858
vn -0.525730968 -0.723606467 -0.447214305
vn -0.525731266 -0.723606408 -0.447213978
vn -0.525731206 -0.723606467 -0.447214007
vn -0.850650847 0.276393265 -0.44721359
vn -0.850650907 0.276392996 -0.44721365
vn -0.850650668 0.276393116 -0.447213769
vn -0.850650728 0.276393145 -0.447213799
vn -0.850650609 0.276393235 -0.447213799
vn -0.525730968 0.723606408 0.447214335
vn -0.525731325 0.723606408 0.447213918
vn -0.525731206 0.723606527 0.447213918
vn -0.525731325 0.723606646 0.44721368
vn -0.525730789 0.723606884 0.447213858
vn -0.850650728 -0.276393145 0.447213799
vn -0.850650668 -0.276393116 0.447213769
vn -0.850650609 -0.276393265 0.447213858
vn -0.850650728 -0.276393265 0.44721359
vn -0.850650787 -0.276393056 0.44721365
vn -0 -0.89442718 0.44721359
vn -1.18727669e-07 -0.89442718 0.447213769
vn -0 -0.894427061 0.447213799
vn -0 -0.894427061 0.447213799
vn 1.18727669e-07 -0.89442718 0.447213769
vn 0.850650728 -0.276393145 0.447213799
vn 0.850650787 -0.276393056 0.44721365
vn 0.850650728 -0.276393265 0.44721359
vn 0.850650609 -0.276393265 0.447213858
vn 0.850650668 -0.276393116 0.447213769
vn 0.525730968 0.723606408 0.447214335
vn 0.525730789 0.723606884 0.447213858
vn 0.525731325 0.723606646 0.44721368
vn 0.525731206 0.723606527 0.447213918
vn 0.525731325 0.723606408 0.447213918
vn -0 -1.39572606e-07 1
vn -3.13359898e-08 -9.6442335e-08 1
vn -0 -8.62606484e-08 0.99999994
vn -0 -8.62606484e-08 0.99999994
vn 3.13359898e-08 -9.6442335e-08 1
g 
f 1//1 2//2 3//3 4//4 5//5
f 1//6 5//7 6//8 11//9 10//10
f 1//11 10//12 15//13 9//14 2//15
f 2//16 9//17 14//18 8//19 3//20
f 3//21 8//22 13//23 7//24 4//25
f 4//26 7//27 12//28 6//29 5//30
f 6//31 12//32 20//33 16//34 11//35
f 7//36 13//37 19//38 20//39 12//40
f 8//41 14//42 18//43 19//44 13//45
f 9//46 15//47 17//48 18//49 14//50
f 10//51 11//52 16//53 17//54 15//55
f 16//56 20//57 19//58 18//59 17//60
